<svg width="57" height="56" viewBox="0 0 57 56" fill="none" xmlns="http://www.w3.org/2000/svg"><path d="M29.3758 2.09586C29.4104 2.20225 29.5096 2.27428 29.6215 2.27428H31.6394C31.8896 2.27428 31.9936 2.59453 31.7911 2.74153L30.1571 3.92764C30.0665 3.99341 30.0286 4.11007 30.0632 4.21653L30.6868 6.13327C30.7642 6.37121 30.4919 6.56917 30.2895 6.42211L28.657 5.23616C28.5664 5.17039 28.4438 5.17041 28.3533 5.23622L26.7223 6.42205C26.52 6.56917 26.2476 6.37138 26.3248 6.13342L26.9472 4.21638C26.9817 4.10999 26.9439 3.99345 26.8534 3.9277L25.2205 2.74147C25.0181 2.59443 25.1221 2.27428 25.3723 2.27428H27.3927C27.5046 2.27428 27.6037 2.20225 27.6383 2.09586L28.2615 0.178428C28.3388 -0.0594764 28.6754 -0.059476 28.7527 0.178429L29.3758 2.09586Z" fill="currentColor"></path><path d="M29.3758 51.6232C29.4104 51.7296 29.5096 51.8016 29.6215 51.8016H31.6394C31.8896 51.8016 31.9936 52.1219 31.7911 52.2689L30.1571 53.455C30.0665 53.5208 30.0286 53.6374 30.0632 53.7439L30.6868 55.6606C30.7642 55.8986 30.4919 56.0965 30.2895 55.9494L28.657 54.7635C28.5664 54.6977 28.4438 54.6978 28.3533 54.7636L26.7223 55.9494C26.52 56.0965 26.2476 55.8987 26.3248 55.6608L26.9472 53.7437C26.9817 53.6373 26.9439 53.5208 26.8534 53.455L25.2205 52.2688C25.0181 52.1218 25.1221 51.8016 25.3723 51.8016H27.3927C27.5046 51.8016 27.6037 51.7296 27.6383 51.6232L28.2615 49.7058C28.3388 49.4679 28.6754 49.4679 28.7527 49.7058L29.3758 51.6232Z" fill="currentColor"></path><path d="M4.5946 26.8595C4.62918 26.9659 4.72833 27.038 4.8402 27.038H6.85638C7.10659 27.038 7.21058 27.3582 7.00811 27.5052L5.3758 28.6903C5.28522 28.7561 5.24732 28.8727 5.28194 28.9792L5.90569 30.897C5.98307 31.135 5.71074 31.3329 5.50832 31.1859L3.87572 29.9998C3.78518 29.9341 3.66259 29.9341 3.57207 29.9999L1.94106 31.1857C1.73871 31.3328 1.46631 31.1351 1.54357 30.8971L2.16595 28.9801C2.20049 28.8737 2.16261 28.7571 2.07211 28.6914L0.439235 27.5051C0.236828 27.3581 0.340841 27.038 0.591021 27.038H2.61146C2.72333 27.038 2.82248 26.9659 2.85706 26.8595L3.48023 24.9421C3.55754 24.7042 3.89412 24.7042 3.97143 24.9421L4.5946 26.8595Z" fill="currentColor"></path><path d="M16.9826 5.41325C17.0171 5.51969 17.1163 5.59176 17.2282 5.59176H19.2453C19.4955 5.59176 19.5995 5.91197 19.397 6.05898L17.7647 7.24414C17.6741 7.30991 17.6362 7.42655 17.6709 7.53299L18.2947 9.45119C18.3721 9.68909 18.0998 9.88702 17.8974 9.74004L16.2646 8.55451C16.1741 8.48879 16.0515 8.48881 15.961 8.55456L14.3298 9.7399C14.1274 9.88695 13.8551 9.68916 13.9324 9.45124L14.5549 7.53385C14.5894 7.42746 14.5515 7.31092 14.461 7.24517L12.8282 6.05894C12.6257 5.9119 12.7298 5.59176 12.9799 5.59176H15.0004C15.1122 5.59176 15.2114 5.51972 15.246 5.41333L15.869 3.4963C15.9463 3.25836 16.283 3.25841 16.3602 3.49638L16.9826 5.41325Z" fill="currentColor"></path><path d="M7.91117 14.4777C7.94574 14.5841 8.0449 14.6561 8.15677 14.6561H10.177C10.4272 14.6561 10.5312 14.9763 10.3288 15.1233L8.69818 16.3075C8.60763 16.3733 8.56974 16.4899 8.60434 16.5963L9.22821 18.5152C9.30556 18.7532 9.03322 18.9511 8.83081 18.804L7.19713 17.617C7.10661 17.5512 6.98404 17.5512 6.89353 17.617L5.25928 18.8044C5.05692 18.9514 4.78463 18.7537 4.86184 18.5158L5.4845 16.5972C5.51903 16.4908 5.48115 16.3743 5.39067 16.3086L3.75952 15.1233C3.55715 14.9762 3.66117 14.6561 3.91133 14.6561H5.92802C6.0399 14.6561 6.13905 14.5841 6.17363 14.4777L6.79679 12.5603C6.87411 12.3224 7.21068 12.3224 7.288 12.5603L7.91117 14.4777Z" fill="currentColor"></path><path d="M7.91107 39.2414C7.94565 39.3478 8.0448 39.4198 8.15667 39.4198H10.1769C10.4271 39.4198 10.5311 39.74 10.3287 39.887L8.69808 41.0712C8.60753 41.137 8.56964 41.2536 8.60424 41.36L9.22811 43.2789C9.30547 43.5168 9.03312 43.7147 8.83071 43.5677L7.19703 42.3807C7.10652 42.3149 6.98395 42.3149 6.89343 42.3807L5.25873 43.5684C5.05642 43.7154 4.78416 43.5178 4.86126 43.2799L5.48352 41.3599C5.51799 41.2535 5.4801 41.137 5.38965 41.0713L3.75954 39.887C3.55714 39.7399 3.66116 39.4198 3.91133 39.4198H5.92793C6.0398 39.4198 6.13895 39.3478 6.17353 39.2414L6.7967 37.3239C6.87402 37.086 7.21059 37.086 7.28791 37.3239L7.91107 39.2414Z" fill="currentColor"></path><path d="M16.984 48.3058C17.0186 48.4122 17.1177 48.4842 17.2295 48.4842H19.2444C19.4947 48.4842 19.5986 48.8044 19.3961 48.9514L17.7643 50.1356C17.6737 50.2013 17.6357 50.318 17.6704 50.4245L18.2941 52.3424C18.3715 52.5803 18.0992 52.7782 17.8968 52.6312L16.265 51.446C16.1745 51.3802 16.052 51.3802 15.9615 51.446L14.3296 52.6313C14.1272 52.7783 13.8549 52.5804 13.9323 52.3425L14.5552 50.4263C14.5898 50.3199 14.5519 50.2033 14.4614 50.1375L12.8279 48.9514C12.6255 48.8044 12.7295 48.4842 12.9797 48.4842H14.9999C15.1117 48.4842 15.2109 48.4121 15.2455 48.3057L15.8688 46.3879C15.9461 46.15 16.2826 46.15 16.36 46.3878L16.984 48.3058Z" fill="currentColor"></path><path d="M40.0206 5.41373C39.9861 5.52012 39.8869 5.59216 39.775 5.59216H37.7569C37.5067 5.59216 37.4027 5.91237 37.6052 6.05938L39.2375 7.24454C39.3281 7.31031 39.366 7.42694 39.3313 7.53339L38.7076 9.45125C38.6302 9.68918 38.9025 9.88711 39.105 9.74006L40.7376 8.55403C40.8281 8.48826 40.9507 8.48828 41.0412 8.55409L42.6722 9.73992C42.8746 9.88704 43.147 9.68925 43.0697 9.4513L42.4473 7.53425C42.4128 7.42786 42.4507 7.31132 42.5412 7.24557L44.174 6.05934C44.3765 5.9123 44.2724 5.59216 44.0223 5.59216H42.0038C41.8919 5.59216 41.7928 5.52012 41.7582 5.41373L41.135 3.4963C41.0577 3.25839 40.7211 3.2584 40.6438 3.4963L40.0206 5.41373Z" fill="currentColor"></path><path d="M49.089 14.4777C49.0544 14.5841 48.9553 14.6561 48.8434 14.6561H46.8235C46.5732 14.6561 46.4693 14.9764 46.6718 15.1234L48.3058 16.3095C48.3964 16.3752 48.4343 16.4919 48.3997 16.5984L47.776 18.5152C47.6986 18.7531 47.9709 18.9511 48.1734 18.804L49.805 17.6189C49.8955 17.5532 50.0181 17.5532 50.1086 17.619L51.7387 18.804C51.941 18.9511 52.2134 18.7533 52.1362 18.5154L51.5137 16.5982C51.4792 16.4918 51.5171 16.3753 51.6076 16.3095L53.2405 15.1233C53.4429 14.9763 53.3388 14.6561 53.0887 14.6561H51.0721C50.9603 14.6561 50.8611 14.5841 50.8265 14.4777L50.2034 12.5603C50.126 12.3224 49.7895 12.3224 49.7122 12.5603L49.089 14.4777Z" fill="currentColor"></path><path d="M52.4074 26.8595C52.3728 26.9659 52.2736 27.038 52.1617 27.038H50.1436C49.8934 27.038 49.7894 27.3582 49.9919 27.5052L51.6242 28.6903C51.7148 28.7561 51.7527 28.8727 51.7181 28.9792L51.0943 30.897C51.0169 31.135 51.2893 31.3329 51.4917 31.1859L53.1243 29.9998C53.2148 29.9341 53.3374 29.9341 53.4279 29.9999L55.0589 31.1857C55.2613 31.3328 55.5337 31.1351 55.4564 30.8971L54.834 28.9801C54.7995 28.8737 54.8374 28.7571 54.9279 28.6914L56.5608 27.5051C56.7632 27.3581 56.6592 27.038 56.409 27.038H54.3905C54.2786 27.038 54.1795 26.9659 54.1449 26.8595L53.5217 24.9421C53.4444 24.7042 53.1078 24.7042 53.0305 24.9421L52.4074 26.8595Z" fill="currentColor"></path><path d="M49.0844 39.2418C49.0498 39.3482 48.9507 39.4202 48.8388 39.4202H46.8219C46.5716 39.4202 46.4677 39.7405 46.6702 39.8874L48.3032 41.0726C48.3937 41.1384 48.4317 41.255 48.3971 41.3614L47.774 43.2786C47.6967 43.5165 47.9689 43.7144 48.1714 43.5674L49.8033 42.382C49.8938 42.3163 50.0164 42.3163 50.1069 42.382L51.7387 43.5673C51.9411 43.7143 52.2134 43.5164 52.1361 43.2785L51.5131 41.3624C51.4785 41.2559 51.5164 41.1393 51.607 41.0736L53.2404 39.8874C53.4429 39.7404 53.3389 39.4202 53.0887 39.4202H51.0685C50.9566 39.4202 50.8575 39.3482 50.8229 39.2418L50.1996 37.3239C50.1223 37.0861 49.7858 37.086 49.7084 37.3239L49.0844 39.2418Z" fill="currentColor"></path><path d="M40.0207 48.3053C39.9862 48.4117 39.887 48.4838 39.7751 48.4838H37.757C37.5068 48.4838 37.4028 48.804 37.6053 48.951L39.2376 50.1361C39.3282 50.2019 39.3661 50.3185 39.3314 50.425L38.7077 52.3428C38.6303 52.5808 38.9026 52.7787 39.1051 52.6317L40.7377 51.4456C40.8282 51.3799 40.9508 51.3799 41.0413 51.4457L42.6728 52.6318C42.8751 52.7789 43.1474 52.5813 43.0703 52.3433L42.4483 50.4248C42.4138 50.3185 42.4517 50.202 42.5422 50.1362L44.174 48.951C44.3765 48.8039 44.2724 48.4838 44.0223 48.4838H42.0039C41.892 48.4838 41.7928 48.4117 41.7583 48.3053L41.1351 46.3879C41.0578 46.15 40.7212 46.15 40.6439 46.3879L40.0207 48.3053Z" fill="currentColor"></path><g clip-path="url(#clip0_5207_8541)"><path d="M26.593 28C29.2517 28 31.407 25.8447 31.407 23.186C31.407 20.5274 29.2517 18.3721 26.593 18.3721C23.9343 18.3721 21.7791 20.5274 21.7791 23.186C21.7791 25.8447 23.9343 28 26.593 28Z" fill="currentColor"></path><path d="M32.4768 27.2592L35.2849 30.1394L40.5001 24.7905" stroke="currentColor" stroke-width="2" stroke-linecap="round" stroke-linejoin="round"></path><path d="M26.593 30.1396C23.1363 30.1396 20.0641 32.0673 18.1171 35.0549C17.6906 35.7094 17.4774 36.0367 17.5019 36.4547C17.521 36.7802 17.7298 37.1787 17.9843 37.3754C18.3111 37.628 18.7606 37.628 19.6596 37.628H33.5264C34.4254 37.628 34.8749 37.628 35.2018 37.3754C35.4563 37.1787 35.665 36.7802 35.6841 36.4547C35.7087 36.0367 35.4954 35.7094 35.0689 35.0549C33.122 32.0673 30.0497 30.1396 26.593 30.1396Z" fill="currentColor"></path></g><defs><clipPath id="clip0_5207_8541"><rect width="24" height="24" fill="white" transform="translate(17.5 16.5)"></rect></clipPath></defs></svg>